<svg xmlns:xlink="http://www.w3.org/1999/xlink" class="w-32 fill-current md:w-36 mx-auto p-8 border-2 border-keto dark:border-white rounded-full" viewBox="0 0 64 64" fill="none" xmlns="http://www.w3.org/2000/svg" width="140"  height="140" >
<path fill-rule="evenodd" clip-rule="evenodd" d="M13.953 8.62A6.667 6.667 0 0 0 12 13.332V56a1.334 1.334 0 0 0 1.333 1.333h37.334v-2.666h-36v-1.334a4 4 0 0 1 4-4h32A1.334 1.334 0 0 0 52 48V8a1.334 1.334 0 0 0-1.333-1.333h-32a6.667 6.667 0 0 0-4.714 1.952zm10.39 11.876c.992.31 1.728.62 1.984.79.991.565 1.439 1.101 1.503 1.92 0 .31-.064.564-.256.875-.16.226-.448.451-.704.62-.384.142-.831.226-1.535.226-.096 0-.184-.02-.272-.042a1.141 1.141 0 0 0-.272-.042.69.69 0 0 1-.448-.17v-4.177zm-1.151 4.968a.69.69 0 0 0 .448.17c.288.168.543.225.991.281.256.085.544.085.8.085.992 0 1.695-.17 2.239-.48.512-.31.896-.62 1.151-1.1.256-.452.448-.932.448-1.412 0-.79-.351-1.58-1.151-2.201-.736-.565-1.535-1.045-2.431-1.27-.096 0-.352-.085-.896-.311l-.141-.045c-.361-.114-.573-.181-.658-.181-.192 0-.352.056-.544.226-.16.17-.256.31-.256.48v2.822c0 .102-.015.236-.034.396a7.368 7.368 0 0 0-.062.874c-.096.565-.096.96-.096 1.27 0 .17.096.311.192.396zm7.805-4.968c-.168 0-.311-.065-.472-.137l-.046-.021-.026-.011c-.192-.17-.256-.226-.256-.48 0-.219.071-.291.193-.415l.063-.065c.192-.17.352-.17.544-.17.167 0 .31.065.472.138l.072.032c.191.17.191.226.191.48a.583.583 0 0 1-.123.363.824.824 0 0 0-.069.117c-.191.084-.383.169-.543.169zm.448 3.161v1.58c0 .17-.096.311-.192.396a.691.691 0 0 1-.448.17.691.691 0 0 1-.448-.17.544.544 0 0 1-.192-.395v-1.58c0-.227 0-.565.096-.96 0-.22.03-.413.056-.585.021-.138.04-.262.04-.375 0-.17.096-.31.192-.395a.691.691 0 0 1 .448-.17c.192 0 .352.085.448.17a.543.543 0 0 1 .192.395c0 .226 0 .564-.096.96-.096.338-.096.649-.096.96zm2.686-1.185c.256-.141.544-.226.8-.226.352 0 .64 0 .832.141-.288.17-.64.31-1.088.48-.183.08-.359.136-.53.19-.19.059-.373.117-.558.205.042-.067.082-.134.121-.2.142-.238.273-.457.423-.59zm-.895 2.85c.448.311 1.087.48 1.887.48.448 0 .96-.084 1.375-.395.544-.226.8-.48.8-.79 0-.226-.192-.395-.544-.395-.192 0-.384.056-.64.226-.287.14-.64.225-1.087.225-.256 0-.512 0-.704-.084l-.015-.007-.027-.012-.03-.012c-.16-.07-.304-.132-.471-.28l1.599-.592c.397-.186.692-.311.897-.399h.001l.19-.081c.447-.226.64-.48.64-.79 0-.396-.257-.735-.705-.96a4.61 4.61 0 0 0-1.439-.226c-.8 0-1.44.226-1.887.79-.448.452-.64 1.1-.64 1.807 0 .62.256 1.1.8 1.496zm8.316-3.076h-.96c.097 1.1.097 1.891.097 2.202v.451c0 .621-.256.96-.704.96a.69.69 0 0 1-.448-.17c-.192-.084-.192-.225-.192-.395v-.931c0-.31 0-1.1-.096-2.202-.192 0-.544 0-.896-.084-.351 0-.64-.226-.64-.565 0-.17.097-.31.193-.395a.691.691 0 0 1 .447-.17c.096 0 .352 0 .8.085v-.875c0-.17.096-.31.192-.395a.69.69 0 0 1 .448-.17c.448 0 .704.311.704 1.017v.31h.447c.352 0 .64 0 .704.085.256.085.352.226.352.564 0 .17-.096.311-.192.396.096.197-.064.282-.256.282z" fill="#201D34"></path>
</svg>