<svg xmlns:xlink="http://www.w3.org/1999/xlink" class="w-32 md:w-36 fill-current mx-auto p-8 border-2 border-keto dark:border-white rounded-full" viewBox="0 0 64 64" fill="none" xmlns="http://www.w3.org/2000/svg" width="140"  height="140" >
<path fill-rule="evenodd" clip-rule="evenodd" d="m32 14-1.193-.596v.001l-.001.003-.003.005-.01.018-.026.057a14.616 14.616 0 0 0-1.075 3.25c-.352 1.762-.468 4.371 1.366 6.205.833.833.95 2.224.634 3.796a11.968 11.968 0 0 1-.8 2.481l-.066.147-.016.033-.003.004 1.194.596 1.193.595.001-.002.003-.006.01-.018.026-.057a14.61 14.61 0 0 0 1.075-3.25c.352-1.762.468-4.371-1.366-6.205-.833-.833-.95-2.224-.634-3.796.175-.853.443-1.685.8-2.481l.066-.147.016-.033.003-.004L32 14zM5.725 37.724c.25-.25.59-.39.943-.39h50.667a1.333 1.333 0 1 1 0 2.666h-4a10.667 10.667 0 0 1-10.667 10.667H21.333A10.667 10.667 0 0 1 10.668 40h-4a1.334 1.334 0 0 1-.943-2.276zm14.503-21.136-.002.003-.004.006-.01.016c-.173.271-.334.55-.483.835a10.374 10.374 0 0 0-.807 2.037c-.43 1.59-.544 3.984 1.619 5.587.837.62.952 1.557.632 2.747a7.775 7.775 0 0 1-.6 1.504 9.225 9.225 0 0 1-.256.458l-.072.115-.017.025 1.106.746c1.106.746 1.107.744 1.107.744l.001-.002.003-.005.01-.016a10.718 10.718 0 0 0 1.291-2.873c.43-1.588.544-3.984-1.619-5.587-.837-.619-.952-1.557-.632-2.747a8.18 8.18 0 0 1 .928-2.076l.018-.026s-.002.001-1.107-.744l-1.106-.746v-.001zm22.667 0zm0 0-.002.003-.004.006-.01.016c-.174.271-.335.55-.483.835a10.38 10.38 0 0 0-.807 2.037c-.43 1.59-.544 3.984 1.618 5.587.838.62.952 1.557.633 2.747a7.769 7.769 0 0 1-.6 1.504 9.063 9.063 0 0 1-.256.458l-.072.115-.018.025s.002-.001 1.107.746c1.105.746 1.106.744 1.106.744l.002-.002.004-.005.01-.016c.174-.271.335-.55.483-.836.34-.649.61-1.332.807-2.037.43-1.588.544-3.984-1.619-5.587-.837-.619-.952-1.557-.632-2.747.147-.52.348-1.024.6-1.502a8.14 8.14 0 0 1 .328-.574l.017-.026L44 17.335l-1.106-.746z" fill="#201D34"></path>
</svg>