<svg xmlns:xlink="http://www.w3.org/1999/xlink" class="w-32 md:w-36 fill-current mx-auto p-8 border-2 border-keto dark:border-white rounded-full" viewBox="0 0 64 64" fill="none" xmlns="http://www.w3.org/2000/svg" width="140"  height="140" >
<path fill-rule="evenodd" clip-rule="evenodd" d="M53.613 50.963A5.333 5.333 0 0 1 48.288 56H15.712a5.333 5.333 0 0 1-5.325-5.037L8.313 13.629A5.333 5.333 0 0 1 13.637 8h36.726a5.333 5.333 0 0 1 5.325 5.63l-2.075 37.333zM45.66 23.705c1.093-.72 1.368-2.148.47-3.077a19.234 19.234 0 0 0-5.26-3.843 20.339 20.339 0 0 0-8.744-2.116c-3.038-.05-6.05.58-8.814 1.843a19.344 19.344 0 0 0-5.394 3.675c-.929.901-.706 2.336.362 3.09l5.75 4.062c1.066.754 2.57.51 3.675-.194a7.7 7.7 0 0 1 4.015-1.18l4.524-5.201a1.333 1.333 0 1 1 2.013 1.75l-3.51 4.033c.476.196.93.441 1.355.73 1.08.738 2.574 1.027 3.667.307l5.89-3.88v.001z" fill="#201D34"></path>
</svg>